<?xml version="1.0" standalone="no"?>
<!DOCTYPE svg PUBLIC "-//W3C//DTD SVG 20010904//EN"
 "http://www.w3.org/TR/2001/REC-SVG-20010904/DTD/svg10.dtd">
<svg version="1.0" xmlns="http://www.w3.org/2000/svg"
 width="120.000000pt" height="120.000000pt" viewBox="0 0 120.000000 120.000000"
 preserveAspectRatio="xMidYMid meet">
<metadata>
Created by potrace 1.16, written by Peter Selinger 2001-2019
</metadata>
<g transform="translate(0.000000,120.000000) scale(0.043956,-0.043956)"
fill="#000000" stroke="none">
<path d="M1747 2653 c-8 -10 -29 -49 -46 -86 -33 -73 -29 -71 -105 -50 -10 3
-73 11 -140 18 -100 10 -141 10 -236 -2 -63 -7 -130 -18 -149 -23 -19 -5 -38
-7 -43 -4 -4 3 -23 39 -42 80 -38 81 -62 95 -70 42 -3 -18 -15 -184 -26 -368
-42 -698 -64 -991 -76 -1011 -3 -6 -133 -73 -288 -149 -458 -223 -496 -242
-496 -249 0 -4 33 -8 72 -9 161 -5 324 -95 379 -209 12 -25 25 -71 28 -102 l6
-56 180 0 c201 0 255 -10 381 -71 115 -54 199 -164 240 -314 12 -40 22 -60 31
-58 8 2 26 39 42 84 34 98 90 193 137 232 49 41 131 79 222 104 65 19 104 22
255 22 176 0 177 0 177 22 0 12 9 51 20 86 46 148 212 258 393 258 39 0 67 4
67 10 0 12 -376 198 -615 305 -82 37 -155 73 -161 81 -6 8 -14 55 -17 106 -3
51 -11 143 -16 203 -6 61 -17 232 -26 380 -25 437 -46 729 -54 738 -4 4 -15
-1 -24 -10z m-41 -1058 l6 -181 -95 -91 c-136 -132 -138 -133 -278 -133 -110
0 -117 1 -160 29 -24 15 -81 66 -127 111 l-84 83 4 178 c2 115 7 179 13 179 6
0 69 -18 141 -39 72 -22 148 -43 169 -47 51 -9 157 12 285 57 58 20 109 36
113 35 5 -1 11 -82 13 -181z"/>
</g>
</svg>
